<?xml version="1.0" encoding="UTF-8"?>
<svg width="222px" height="207px" viewBox="0 0 222 207" version="1.1" xmlns="http://www.w3.org/2000/svg" xmlns:xlink="http://www.w3.org/1999/xlink">
    <title>Group</title>
    <defs>
        <path d="M110.916969,206.8 C172.174719,206.8 221.833937,164.624206 221.833937,103.375303 C221.833937,42.1263995 180.112244,-10.0858282 140.066141,1.66417564 C112.943479,9.62228802 103.698071,42.2989036 75.9639204,57.1248576 C48.2297701,71.9508117 1.73514536e-12,70.6910277 1.73514536e-12,103.375303 C1.73514536e-12,164.624206 49.6592183,206.8 110.916969,206.8 Z" id="path-1"></path>
    </defs>
    <g id="MY-BAG" stroke="none" stroke-width="1" fill="none" fill-rule="evenodd">
        <g id="07_-W_Empty-Bag_3" transform="translate(-729.000000, -232.000000)">
            <g id="Group" transform="translate(729.000000, 232.000000)">
                <g id="Group-4">
                    <g id="Rectangle">
                        <mask id="mask-2" fill="white">
                            <use xlink:href="#path-1"></use>
                        </mask>
                        <use id="Mask" fill="#FECD3C" xlink:href="#path-1"></use>
                        <rect fill="#FFFFFF" mask="url(#mask-2)" x="55" y="99" width="124.396117" height="114.4"></rect>
                        <rect fill="#FFFFFF" mask="url(#mask-2)" x="61.6" y="91.3" width="113.3" height="7.7"></rect>
                        <path d="M55,187.259671 C78.1389477,197.415323 99.5701147,201.595732 119.293501,199.8009 C139.016887,198.006069 159.051093,190.805768 179.396117,178.2 L179.396117,190.450443 L148.878581,217.836708 L65.4088898,214.701349 L55,199.8009 L55,187.259671 Z" id="Path-2" fill="#D8D8D8" opacity="0.18840843" mask="url(#mask-2)"></path>
                    </g>
                    <path d="M97.1669686,112.2 L97.1669686,124.3 C97.1669686,135.235238 106.031731,144.1 116.966969,144.1 C127.902207,144.1 136.766969,135.235238 136.766969,124.3 L136.766969,112.2 L136.766969,112.2" id="Path-13" stroke="#979797" stroke-width="2.2" stroke-linecap="round"></path>
                    <polygon id="Path-15" fill="#B3B8BE" points="74.9824006 99 74.9824006 94.8971036 61.6 91.3 174.9 91.3 159.982401 94.8971036 159.982401 99"></polygon>
                    <g id="Group-3" transform="translate(96.066969, 156.200000)" fill="#B8BCC2">
                        <circle id="Oval" cx="2.75" cy="2.75" r="2.75"></circle>
                        <circle id="Oval-Copy" cx="40.15" cy="2.75" r="2.75"></circle>
                    </g>
                    <g id="Group-3-Copy" opacity="0.2109375" transform="translate(91.666969, 165.000000)" fill="#FBDADA">
                        <circle id="Oval" cx="4.4" cy="4.4" r="4.4"></circle>
                        <circle id="Oval-Copy" cx="47.3" cy="4.4" r="4.4"></circle>
                    </g>
                    <path d="M112.566969,179.815219 C113.939898,178.738406 115.406564,178.2 116.966969,178.2 C118.527373,178.2 119.994039,178.738406 121.366969,179.815219" id="Path-16" stroke="#B8BCC2" stroke-width="2.75" stroke-linecap="round"></path>
                    <polygon id="Path-3" fill="#D8D8D8" points="159.982401 94.8971036 179.396117 99 159.982401 99"></polygon>
                    <polygon id="Path-3-Copy" fill="#D8D8D8" transform="translate(64.982401, 96.948552) scale(-1, 1) translate(-64.982401, -96.948552) " points="54.9824006 94.8971036 74.9824006 99 54.9824006 99"></polygon>
                </g>
                <path d="M90.1897877,9.00280728 C90.1897877,9.00280728 90.1897877,9.00280728 90.1897877,9.00280728 C88.0792834,8.99155318 86.072925,9.91640735 84.7134489,11.5272108 C83.3624932,9.90539791 81.3505567,8.97791371 79.2371101,9.00280728 C75.2752098,9.00280728 72.0634795,12.2074719 72.0634795,16.1606562 C72.0634795,22.9351319 83.9128303,29.5497261 84.393226,29.8053897 C84.5870515,29.9346283 84.8398462,29.9346283 85.0337331,29.8053897 C85.5141287,29.5497261 97.3634795,23.0309752 97.3634795,16.1606562 C97.3634795,12.2074719 94.1516879,9.00280728 90.1897877,9.00280728 Z" id="Path" fill="rgb(254, 205, 60)" fill-rule="nonzero" transform="translate(84.713480, 19.452319) rotate(-19.000000) translate(-84.713480, -19.452319) "></path>
            </g>
        </g>
    </g>
</svg>