<svg width="40" height="40" viewBox="0 0 40 40" fill="none" xmlns="http://www.w3.org/2000/svg">
<rect width="40" height="40" rx="2" fill="#141414"/>
<path d="M0 0H38C39.1046 0 40 0.895431 40 2V38C40 39.1046 39.1046 40 38 40H0V0Z" fill="#141414"/>
<path d="M19.5222 22.8923L14.4535 17.4993C14.1309 17.1563 14.1309 16.6001 14.4535 16.2572C14.7758 15.9143 15.2986 15.9143 15.6208 16.2572L20.1059 21.0291L24.5907 16.2573C24.9132 15.9144 25.4359 15.9144 25.7582 16.2573C26.0806 16.6002 26.0806 17.1564 25.7582 17.4995L20.6894 22.8924C20.5282 23.0638 20.3171 23.1495 20.1059 23.1495C19.8946 23.1495 19.6833 23.0637 19.5222 22.8923Z" fill="#E8AA31"/>
</svg>
